<svg width="6626" height="1843" viewBox="0 0 6626 1843" fill="none" xmlns="http://www.w3.org/2000/svg">
<path d="M818.32 571.853C818.32 572.132 819.925 567.98 822.438 557.776C823.867 551.971 823.506 544.474 822.264 536.608C816.56 500.473 801.153 471.101 797.212 449.963C793.075 427.78 785.764 408.524 775.674 388.251C764.829 366.464 741.118 353.788 714.559 336.191C684.486 316.266 667.298 298.235 646.104 286.471C623.177 273.746 572.767 266.713 534.219 258.673C516.095 254.894 498.563 251.582 479.223 250.441C451.661 248.816 398.237 257.307 337.009 269.996C302.405 277.169 286.514 284.994 274.684 290.71C262.64 296.531 250.519 305.874 238.239 316.539C216.274 335.614 179.142 390.479 146.898 437.94C130.117 462.642 124.37 501.3 119.091 544.293C109.834 619.71 121.186 647.102 127.262 672.489C133.597 698.956 154.995 734.317 167.69 758.451C172.617 767.817 179.27 775.672 186.123 782.63C202.103 798.856 243.334 828.37 269.742 848.735C280.107 856.729 292.24 861.428 303.115 865.014C314.64 868.814 327.619 869.84 349.894 870.726C390.486 872.339 439.144 874.106 509.611 877.569C557.003 879.897 628.161 879.526 671.583 880.79C728.635 882.45 747.886 887.132 759.887 890.093C794.036 898.518 836.429 922.386 870.169 943.496C910.113 968.487 930.295 997.953 948.444 1024.63C966.599 1051.31 980.12 1090.35 992.661 1123.23C1008.53 1164.85 1011.31 1229.79 1012.42 1300.04C1012.93 1332.74 988.707 1382.24 973.689 1419.26C964.255 1442.53 942.093 1495.34 920.56 1533.43C910.179 1551.79 881.35 1581.21 846.968 1619.24C795.067 1676.65 740.207 1704.88 714.55 1716.19C695.12 1724.75 668.098 1730.02 629.587 1741.91C571.702 1759.77 529.469 1776.17 512.778 1778.89C467.483 1786.26 377.459 1776.22 328.218 1767.65C297.945 1762.38 258.071 1742.86 211.676 1724.9C168.54 1708.19 140.8 1701.4 130.808 1696.34C121.246 1691.48 113.3 1684.09 105.433 1676.5C97.2446 1668.6 90.3512 1656.49 83.7129 1643.11C71.6733 1605.22 60.288 1551.38 60.4211 1447.56C61.902 1426.14 65.1529 1422.28 68.5025 1418.33" stroke="#2E2328" stroke-width="32" stroke-linecap="round" stroke-linejoin="round"/>
<path d="M2015.11 285.893C2014.55 285.893 2011.28 282.071 2003.97 274.496C1995.39 265.6 1980.24 260.703 1962.61 255.291C1921.06 242.546 1867.32 244.728 1806.13 250.779C1773.38 254.017 1748.55 263.039 1732.85 269.501C1701.4 282.453 1665.35 311.775 1638.4 334.615C1618.49 351.474 1595.24 380.035 1562.88 422.497C1516.61 483.233 1480.89 544.995 1458.21 588.982C1438.31 627.571 1429.88 654.535 1423.84 672.452C1415.23 697.986 1404.1 748.473 1390.67 819.967C1383.84 856.308 1379.64 893.246 1377.05 954.07C1374.47 1014.89 1374.31 1098.61 1374.97 1149.42C1375.83 1215.62 1381.45 1246.52 1389.63 1284.17C1394.54 1306.83 1402.81 1336.3 1416.07 1374.01C1445.46 1457.55 1472.6 1513.06 1483.95 1531.84C1502.78 1563 1564.49 1621.41 1614.49 1666.74C1630.62 1681.35 1647.78 1688.61 1660.56 1694.8C1673.59 1701.13 1697.26 1706.55 1745.91 1715.05C1825.83 1729 1900.82 1731.36 1940.87 1730.92C1960.42 1730.71 1990.85 1725.01 2040.45 1714.98C2122.49 1698.39 2186.72 1661.67 2225.09 1638.42C2263.72 1615.01 2293.25 1570.08 2345.81 1484.24C2374.96 1436.62 2391.18 1389.95 2407.99 1330.28C2418.99 1291.18 2430.4 1232.91 2437.54 1195.95C2447.37 1145.04 2447.2 1110.95 2444.23 1055.06C2439.42 964.613 2427.08 894.176 2420.54 865.46C2409.55 817.29 2380.31 744.236 2353.69 682.577C2315.6 594.322 2291.21 570.409 2263.01 525.906C2244.85 497.233 2223.05 464.301 2205.19 443.354C2181.68 415.767 2153.92 395.335 2138.6 383.931C2123.89 372.989 2109.89 360.369 2092.89 349.077C2076.6 338.25 2062.5 322.887 2049.4 308.663C2045.88 305.805 2041.75 303.742 2037.41 302.302C2033.08 300.861 2028.65 300.108 2023.62 299.333" stroke="#2E2328" stroke-width="32" stroke-linecap="round" stroke-linejoin="round"/>
<path d="M2646.1 1703.16C2645.55 1703.16 2645.09 1697.98 2645.67 1687.9C2646.22 1678.29 2652.4 1664.54 2661.52 1627.66C2679.36 1555.42 2691.93 1497.56 2712.22 1444.37C2728.41 1401.94 2760.01 1329.52 2799.95 1245.47C2839.9 1161.4 2888.1 1068.24 2918.25 1006.93C2948.4 945.634 2959.03 919.022 2973.24 880.613C2987.45 842.204 3004.91 792.803 3020.25 753.602C3035.59 714.401 3048.26 686.897 3068.77 644.639C3089.27 602.38 3117.2 546.201 3136.63 508.976C3178.56 428.63 3208.22 394.082 3225.59 368.689C3241.45 345.53 3259.36 306.6 3267.08 279.683C3273.94 255.828 3281.71 237.866 3289.57 225.354C3290.66 223.629 3293.8 230.55 3295.59 235.352C3305.17 260.899 3312.16 310.902 3320.06 344.277C3326.68 372.213 3360.49 420.072 3394.1 484.427C3435.54 563.756 3454.36 626.714 3460.9 645.344C3471.67 676.038 3492.42 733.768 3521.91 813.083C3552.28 894.775 3564.9 949.742 3571.16 967.358C3575.29 978.979 3586.21 1012.3 3607.55 1071.5C3629.99 1133.76 3650.63 1181.96 3660.79 1216.65C3671.16 1252.09 3677.66 1277.21 3684.1 1297.86C3708.67 1376.66 3722.76 1439.62 3732.56 1469.1C3741.83 1496.94 3746.34 1524.22 3751.64 1546.7C3758.52 1575.94 3766.05 1609.98 3773.14 1628.37C3777.25 1638.78 3781.45 1649.15 3785.52 1658.41C3787.54 1662.91 3789.46 1667.04 3791.94 1672.23" stroke="#2E2328" stroke-width="32" stroke-linecap="round" stroke-linejoin="round"/>
<path d="M2864.29 1154.15C2863.97 1154.15 2863.65 1154.15 2861.64 1152.89C2859.62 1151.64 2855.94 1149.13 2862.16 1147.77C2868.38 1146.41 2884.64 1146.27 2928.65 1139.39C2972.67 1132.51 3043.95 1118.89 3098.77 1107.67C3190.01 1088.99 3243.95 1076.69 3294.1 1070.68C3376.33 1060.83 3450.65 1055.83 3489.07 1050.44C3510.13 1047.5 3523.23 1047.56 3535.57 1048.44C3554.71 1054.09 3569.95 1056.8 3579.36 1057.6C3584.02 1058.12 3588.48 1058.87 3593.92 1060.07" stroke="#2E2328" stroke-width="32" stroke-linecap="round" stroke-linejoin="round"/>
<path d="M4150.73 131.107C4151.01 131.107 4151.29 131.107 4152.98 129.335C4154.66 127.565 4157.76 124.022 4160.53 125.014C4168.43 127.838 4172.57 179.595 4180.72 263.708C4184.79 305.638 4187.24 346.175 4189.87 379.021C4192.5 411.866 4194.87 435.827 4198.46 486.763C4202.04 537.698 4206.78 614.882 4211.35 686.582C4215.92 758.283 4220.17 822.161 4224.45 868.611C4228.73 915.061 4232.9 942.146 4236 1026.05C4239.09 1109.94 4240.97 1249.84 4242.54 1328.26C4244.38 1419.42 4246.84 1455.41 4247.57 1492.33C4248.12 1520.06 4253.12 1564.16 4255.59 1598.84C4258.05 1614.66 4260.31 1628.23 4260.65 1632.81C4260.29 1632.94 4258.8 1628.65 4257.27 1624.22" stroke="#2E2328" stroke-width="32" stroke-linecap="round" stroke-linejoin="round"/>
<path d="M4181.12 126.63C4185.46 123.533 4219.32 107.484 4268.61 92.1479C4280.83 88.3471 4293.18 87.113 4348.05 84.8636C4402.91 82.6143 4500.17 80.2712 4568.44 80.9749C4673.18 82.0543 4725.36 92.7011 4763.98 103.49C4821.14 119.461 4864.54 139.905 4885.55 150.388C4904.53 159.864 4927.79 178.661 4954.38 200.38C4973.46 215.949 5001.19 248.186 5035.14 288.993C5069.73 330.572 5084.93 381.174 5102.54 413.251C5111.95 430.36 5116.81 444.327 5119.46 453.558C5125.03 472.958 5125.81 542.388 5120.49 607.431C5116.92 650.908 5078.22 712.834 5051.75 755.641C5027.81 794.333 4978.87 824.594 4945.94 848.873C4929.07 861.312 4872.77 885.89 4800.69 917.446C4751.59 938.943 4728.19 943.091 4697.23 947.745C4658.78 953.526 4612.82 959.53 4575.35 966.513C4548.25 971.563 4493.77 971.49 4417.84 971.144C4335.8 970.77 4320.96 964.376 4312.19 961.456C4307.73 959.977 4303.65 957.532 4300.33 954.473C4297.02 951.413 4294.68 947.563 4291.56 944.395C4288.44 941.226 4284.58 938.856 4280.23 936.895C4275.87 934.934 4271.14 933.455 4266.42 932.108C4261.68 930.76 4257.11 929.589 4250.08 927.875" stroke="#2E2328" stroke-width="32" stroke-linecap="round" stroke-linejoin="round"/>
<path d="M5391.53 125.344C5399.15 131.012 5427.49 151.253 5527 249.789C5552.65 275.191 5564.68 287.679 5618.51 329.169C5663.91 364.167 5748.27 424.524 5807.18 465.757C5896.39 528.205 5940.04 555.058 5964.4 576.176C6025.53 629.194 6056.78 650.225 6084.21 663.455C6104.03 671.841 6122.1 679.957 6134.33 686.746C6139.89 690.131 6144.15 693.394 6149.5 685.937" stroke="#2E2328" stroke-width="32" stroke-linecap="round" stroke-linejoin="round"/>
<path d="M6565.58 60.4258C6565.58 60.7047 6563.82 65.7299 6552.63 89.8349C6527.84 143.269 6495.53 197.911 6459.53 251.172C6437.39 283.935 6404.43 326.303 6377.78 359.477C6332.38 415.963 6305.56 443.897 6293.64 460.937C6252.18 520.236 6220.05 580.662 6201.54 604.317C6170.82 643.595 6152.76 680.811 6145.96 699.841C6142.42 709.705 6142.16 757.67 6140.82 836.315C6139.68 902.457 6135.15 954.155 6136.33 996.431C6136.92 1017.42 6139.89 1037.37 6141.47 1073.82C6143.05 1110.27 6143.77 1162.61 6144.81 1199.11C6145.84 1235.61 6147.17 1254.68 6148.59 1291.35C6152.1 1381.66 6154.24 1447.35 6156.2 1467.35C6159.3 1519.36 6163.64 1574.99 6164.8 1586.59C6165.19 1593.32 6165.19 1601.75 6165.19 1599.69" stroke="#2E2328" stroke-width="32" stroke-linecap="round" stroke-linejoin="round"/>
</svg>
